%TF.GenerationSoftware,KiCad,Pcbnew,8.0.5*%
%TF.CreationDate,2025-02-16T21:21:17+01:00*%
%TF.ProjectId,stmbl-fpga-master,73746d62-6c2d-4667-9067-612d6d617374,rev?*%
%TF.SameCoordinates,Original*%
%TF.FileFunction,Soldermask,Top*%
%TF.FilePolarity,Negative*%
%FSLAX46Y46*%
G04 Gerber Fmt 4.6, Leading zero omitted, Abs format (unit mm)*
G04 Created by KiCad (PCBNEW 8.0.5) date 2025-02-16 21:21:17*
%MOMM*%
%LPD*%
G01*
G04 APERTURE LIST*
G04 Aperture macros list*
%AMRoundRect*
0 Rectangle with rounded corners*
0 $1 Rounding radius*
0 $2 $3 $4 $5 $6 $7 $8 $9 X,Y pos of 4 corners*
0 Add a 4 corners polygon primitive as box body*
4,1,4,$2,$3,$4,$5,$6,$7,$8,$9,$2,$3,0*
0 Add four circle primitives for the rounded corners*
1,1,$1+$1,$2,$3*
1,1,$1+$1,$4,$5*
1,1,$1+$1,$6,$7*
1,1,$1+$1,$8,$9*
0 Add four rect primitives between the rounded corners*
20,1,$1+$1,$2,$3,$4,$5,0*
20,1,$1+$1,$4,$5,$6,$7,0*
20,1,$1+$1,$6,$7,$8,$9,0*
20,1,$1+$1,$8,$9,$2,$3,0*%
%AMRotRect*
0 Rectangle, with rotation*
0 The origin of the aperture is its center*
0 $1 length*
0 $2 width*
0 $3 Rotation angle, in degrees counterclockwise*
0 Add horizontal line*
21,1,$1,$2,0,0,$3*%
%AMFreePoly0*
4,1,43,0.169134,1.046194,0.185355,1.035355,0.196194,1.019134,0.200000,1.000000,0.200000,0.225000,0.700000,0.225000,0.735355,0.210355,0.750000,0.175000,0.750000,0.025000,0.735355,-0.010355,0.700000,-0.025000,0.200000,-0.025000,0.200000,-0.275000,0.700000,-0.275000,0.735355,-0.289645,0.750000,-0.325000,0.750000,-0.475000,0.735355,-0.510355,0.700000,-0.525000,0.200000,-0.525000,
0.200000,-0.775000,0.700000,-0.775000,0.735355,-0.789645,0.750000,-0.825000,0.750000,-0.975000,0.735355,-1.010355,0.700000,-1.025000,0.192274,-1.025000,0.185355,-1.035355,0.169134,-1.046194,0.150000,-1.050000,-0.150000,-1.050000,-0.169134,-1.046194,-0.185355,-1.035355,-0.196194,-1.019134,-0.200000,-1.000000,-0.200000,1.000000,-0.196194,1.019134,-0.185355,1.035355,-0.169134,1.046194,
-0.150000,1.050000,0.150000,1.050000,0.169134,1.046194,0.169134,1.046194,$1*%
G04 Aperture macros list end*
%ADD10C,1.400000*%
%ADD11O,3.600000X1.800000*%
%ADD12RoundRect,0.250000X-1.550000X0.650000X-1.550000X-0.650000X1.550000X-0.650000X1.550000X0.650000X0*%
%ADD13RoundRect,0.075000X0.662500X0.075000X-0.662500X0.075000X-0.662500X-0.075000X0.662500X-0.075000X0*%
%ADD14RoundRect,0.150000X-0.825000X-0.150000X0.825000X-0.150000X0.825000X0.150000X-0.825000X0.150000X0*%
%ADD15RoundRect,0.200000X-0.053033X0.335876X-0.335876X0.053033X0.053033X-0.335876X0.335876X-0.053033X0*%
%ADD16RoundRect,0.225000X0.225000X0.250000X-0.225000X0.250000X-0.225000X-0.250000X0.225000X-0.250000X0*%
%ADD17RoundRect,0.225000X-0.335876X-0.017678X-0.017678X-0.335876X0.335876X0.017678X0.017678X0.335876X0*%
%ADD18RoundRect,0.225000X0.335876X0.017678X0.017678X0.335876X-0.335876X-0.017678X-0.017678X-0.335876X0*%
%ADD19RoundRect,0.200000X-0.275000X0.200000X-0.275000X-0.200000X0.275000X-0.200000X0.275000X0.200000X0*%
%ADD20RoundRect,0.225000X-0.250000X0.225000X-0.250000X-0.225000X0.250000X-0.225000X0.250000X0.225000X0*%
%ADD21RoundRect,0.200000X-0.200000X-0.275000X0.200000X-0.275000X0.200000X0.275000X-0.200000X0.275000X0*%
%ADD22RoundRect,0.225000X-0.017678X0.335876X-0.335876X0.017678X0.017678X-0.335876X0.335876X-0.017678X0*%
%ADD23RoundRect,0.225000X-0.225000X-0.250000X0.225000X-0.250000X0.225000X0.250000X-0.225000X0.250000X0*%
%ADD24RoundRect,0.200000X-0.335876X-0.053033X-0.053033X-0.335876X0.335876X0.053033X0.053033X0.335876X0*%
%ADD25RoundRect,0.225000X0.017678X-0.335876X0.335876X-0.017678X-0.017678X0.335876X-0.335876X0.017678X0*%
%ADD26RoundRect,0.250000X-0.375000X-0.625000X0.375000X-0.625000X0.375000X0.625000X-0.375000X0.625000X0*%
%ADD27RoundRect,0.250000X0.325000X0.650000X-0.325000X0.650000X-0.325000X-0.650000X0.325000X-0.650000X0*%
%ADD28RoundRect,0.200000X0.335876X0.053033X0.053033X0.335876X-0.335876X-0.053033X-0.053033X-0.335876X0*%
%ADD29RoundRect,0.218750X-0.256250X0.218750X-0.256250X-0.218750X0.256250X-0.218750X0.256250X0.218750X0*%
%ADD30RoundRect,0.200000X0.275000X-0.200000X0.275000X0.200000X-0.275000X0.200000X-0.275000X-0.200000X0*%
%ADD31RoundRect,0.150000X-0.521491X0.309359X0.309359X-0.521491X0.521491X-0.309359X-0.309359X0.521491X0*%
%ADD32RoundRect,0.200000X0.053033X-0.335876X0.335876X-0.053033X-0.053033X0.335876X-0.335876X0.053033X0*%
%ADD33RoundRect,0.187500X0.312500X0.187500X-0.312500X0.187500X-0.312500X-0.187500X0.312500X-0.187500X0*%
%ADD34RoundRect,0.150000X0.150000X-0.825000X0.150000X0.825000X-0.150000X0.825000X-0.150000X-0.825000X0*%
%ADD35C,1.600000*%
%ADD36C,3.250000*%
%ADD37RoundRect,0.375000X-0.625000X-0.375000X0.625000X-0.375000X0.625000X0.375000X-0.625000X0.375000X0*%
%ADD38RoundRect,0.500000X-0.500000X-1.400000X0.500000X-1.400000X0.500000X1.400000X-0.500000X1.400000X0*%
%ADD39RoundRect,0.250000X0.600000X0.600000X-0.600000X0.600000X-0.600000X-0.600000X0.600000X-0.600000X0*%
%ADD40C,1.700000*%
%ADD41R,2.350000X3.500000*%
%ADD42RoundRect,0.250000X-0.650000X0.325000X-0.650000X-0.325000X0.650000X-0.325000X0.650000X0.325000X0*%
%ADD43R,0.500000X0.800000*%
%ADD44R,0.400000X0.800000*%
%ADD45RoundRect,0.225000X0.250000X-0.225000X0.250000X0.225000X-0.250000X0.225000X-0.250000X-0.225000X0*%
%ADD46RoundRect,0.050000X0.075000X0.250000X-0.075000X0.250000X-0.075000X-0.250000X0.075000X-0.250000X0*%
%ADD47RoundRect,0.050000X0.250000X-0.075000X0.250000X0.075000X-0.250000X0.075000X-0.250000X-0.075000X0*%
%ADD48RoundRect,0.050000X0.800000X-0.075000X0.800000X0.075000X-0.800000X0.075000X-0.800000X-0.075000X0*%
%ADD49FreePoly0,90.000000*%
%ADD50RoundRect,0.050000X1.000000X-0.150000X1.000000X0.150000X-1.000000X0.150000X-1.000000X-0.150000X0*%
%ADD51RoundRect,0.150000X0.587500X0.150000X-0.587500X0.150000X-0.587500X-0.150000X0.587500X-0.150000X0*%
%ADD52RoundRect,0.150000X-0.587500X-0.150000X0.587500X-0.150000X0.587500X0.150000X-0.587500X0.150000X0*%
%ADD53RoundRect,0.200000X0.200000X0.275000X-0.200000X0.275000X-0.200000X-0.275000X0.200000X-0.275000X0*%
%ADD54RoundRect,0.150000X0.150000X-0.512500X0.150000X0.512500X-0.150000X0.512500X-0.150000X-0.512500X0*%
%ADD55RoundRect,0.150000X0.150000X-0.587500X0.150000X0.587500X-0.150000X0.587500X-0.150000X-0.587500X0*%
%ADD56R,0.800000X0.500000*%
%ADD57R,0.800000X0.400000*%
%ADD58RoundRect,0.250000X-0.650000X1.000000X-0.650000X-1.000000X0.650000X-1.000000X0.650000X1.000000X0*%
%ADD59RotRect,0.800000X0.500000X315.000000*%
%ADD60RotRect,0.800000X0.400000X315.000000*%
%ADD61RoundRect,0.250000X0.650000X-1.000000X0.650000X1.000000X-0.650000X1.000000X-0.650000X-1.000000X0*%
%ADD62RoundRect,0.075000X-0.521491X0.415425X0.415425X-0.521491X0.521491X-0.415425X-0.415425X0.521491X0*%
%ADD63RoundRect,0.075000X-0.521491X-0.415425X-0.415425X-0.521491X0.521491X0.415425X0.415425X0.521491X0*%
%ADD64C,2.500000*%
%ADD65C,1.500000*%
%ADD66RoundRect,0.250500X0.499500X0.499500X-0.499500X0.499500X-0.499500X-0.499500X0.499500X-0.499500X0*%
%ADD67R,0.650000X0.850000*%
%ADD68O,1.700000X1.700000*%
%ADD69R,1.700000X1.700000*%
%ADD70C,6.000000*%
%ADD71RoundRect,0.150000X-0.689429X0.477297X0.477297X-0.689429X0.689429X-0.477297X-0.477297X0.689429X0*%
%ADD72RoundRect,0.075000X0.521491X-0.415425X-0.415425X0.521491X-0.521491X0.415425X0.415425X-0.521491X0*%
%ADD73RoundRect,0.075000X0.521491X0.415425X0.415425X0.521491X-0.521491X-0.415425X-0.415425X-0.521491X0*%
%ADD74RoundRect,0.218750X-0.424264X-0.114905X-0.114905X-0.424264X0.424264X0.114905X0.114905X0.424264X0*%
%ADD75RoundRect,0.218750X0.218750X0.381250X-0.218750X0.381250X-0.218750X-0.381250X0.218750X-0.381250X0*%
G04 APERTURE END LIST*
D10*
%TO.C,REF\u002A\u002A*%
X32540000Y-31016000D03*
%TD*%
%TO.C,REF\u002A\u002A*%
X127028000Y-128806000D03*
%TD*%
D11*
%TO.C,J2*%
X34932500Y-47250000D03*
D12*
X34932500Y-43750000D03*
%TD*%
D13*
%TO.C,U2401*%
X52762500Y-102806000D03*
X52762500Y-102306000D03*
X52762500Y-101806000D03*
X52762500Y-101306000D03*
X52762500Y-100806000D03*
X52762500Y-100306000D03*
X52762500Y-99806000D03*
X52762500Y-99306000D03*
X52762500Y-98806000D03*
X52762500Y-98306000D03*
X52762500Y-97806000D03*
X52762500Y-97306000D03*
X52762500Y-96806000D03*
X52762500Y-96306000D03*
X52762500Y-95806000D03*
X52762500Y-95306000D03*
X52762500Y-94806000D03*
X52762500Y-94306000D03*
X52762500Y-93806000D03*
X52762500Y-93306000D03*
X52762500Y-92806000D03*
X52762500Y-92306000D03*
X52762500Y-91806000D03*
X52762500Y-91306000D03*
X45337500Y-91306000D03*
X45337500Y-91806000D03*
X45337500Y-92306000D03*
X45337500Y-92806000D03*
X45337500Y-93306000D03*
X45337500Y-93806000D03*
X45337500Y-94306000D03*
X45337500Y-94806000D03*
X45337500Y-95306000D03*
X45337500Y-95806000D03*
X45337500Y-96306000D03*
X45337500Y-96806000D03*
X45337500Y-97306000D03*
X45337500Y-97806000D03*
X45337500Y-98306000D03*
X45337500Y-98806000D03*
X45337500Y-99306000D03*
X45337500Y-99806000D03*
X45337500Y-100306000D03*
X45337500Y-100806000D03*
X45337500Y-101306000D03*
X45337500Y-101806000D03*
X45337500Y-102306000D03*
X45337500Y-102806000D03*
%TD*%
D14*
%TO.C,U1802*%
X95851000Y-80927000D03*
X95851000Y-82197000D03*
X95851000Y-83467000D03*
X95851000Y-84737000D03*
X100801000Y-84737000D03*
X100801000Y-83467000D03*
X100801000Y-82197000D03*
X100801000Y-80927000D03*
%TD*%
D15*
%TO.C,R116*%
X63984363Y-96599637D03*
X62817637Y-97766363D03*
%TD*%
D16*
%TO.C,C2102*%
X97831000Y-121948000D03*
X96281000Y-121948000D03*
%TD*%
D14*
%TO.C,U1102*%
X95851000Y-73815000D03*
X95851000Y-75085000D03*
X95851000Y-76355000D03*
X95851000Y-77625000D03*
X100801000Y-77625000D03*
X100801000Y-76355000D03*
X100801000Y-75085000D03*
X100801000Y-73815000D03*
%TD*%
D17*
%TO.C,C126*%
X54343992Y-87109992D03*
X55440008Y-88206008D03*
%TD*%
D18*
%TO.C,C122*%
X48455008Y-84015008D03*
X47358992Y-82918992D03*
%TD*%
D19*
%TO.C,R1903*%
X103152000Y-97501000D03*
X103152000Y-99151000D03*
%TD*%
D20*
%TO.C,C2202*%
X48034000Y-52339000D03*
X48034000Y-53889000D03*
%TD*%
D19*
%TO.C,R106*%
X75466000Y-104105000D03*
X75466000Y-105755000D03*
%TD*%
%TO.C,R609*%
X83086000Y-47463000D03*
X83086000Y-49113000D03*
%TD*%
D16*
%TO.C,C207*%
X38903000Y-125250000D03*
X37353000Y-125250000D03*
%TD*%
D21*
%TO.C,R209*%
X59655000Y-127028000D03*
X61305000Y-127028000D03*
%TD*%
D22*
%TO.C,C120*%
X74363008Y-91554992D03*
X73266992Y-92651008D03*
%TD*%
D23*
%TO.C,C608*%
X62245000Y-47780000D03*
X63795000Y-47780000D03*
%TD*%
D11*
%TO.C,J1*%
X34932500Y-63305000D03*
D12*
X34932500Y-59805000D03*
%TD*%
D17*
%TO.C,C609*%
X75646987Y-52591520D03*
X76743003Y-53687536D03*
%TD*%
D24*
%TO.C,R105*%
X73866637Y-99266637D03*
X75033363Y-100433363D03*
%TD*%
D25*
%TO.C,C119*%
X68186992Y-95826008D03*
X69283008Y-94729992D03*
%TD*%
D19*
%TO.C,R1703*%
X103152000Y-69053000D03*
X103152000Y-70703000D03*
%TD*%
D26*
%TO.C,F81*%
X71272000Y-111788000D03*
X74072000Y-111788000D03*
%TD*%
D16*
%TO.C,C703*%
X78273000Y-59210000D03*
X76723000Y-59210000D03*
%TD*%
D14*
%TO.C,U1302*%
X95851000Y-102263000D03*
X95851000Y-103533000D03*
X95851000Y-104803000D03*
X95851000Y-106073000D03*
X100801000Y-106073000D03*
X100801000Y-104803000D03*
X100801000Y-103533000D03*
X100801000Y-102263000D03*
%TD*%
D27*
%TO.C,C211*%
X69067000Y-123980000D03*
X66117000Y-123980000D03*
%TD*%
D21*
%TO.C,R207*%
X36541000Y-127028000D03*
X38191000Y-127028000D03*
%TD*%
D19*
%TO.C,R1502*%
X85626000Y-122647000D03*
X85626000Y-124297000D03*
%TD*%
D16*
%TO.C,C1302*%
X97831000Y-100612000D03*
X96281000Y-100612000D03*
%TD*%
D17*
%TO.C,C123*%
X52946992Y-88506992D03*
X54043008Y-89603008D03*
%TD*%
D23*
%TO.C,C610*%
X62245000Y-46002000D03*
X63795000Y-46002000D03*
%TD*%
D28*
%TO.C,R603*%
X72108624Y-49053158D03*
X70941898Y-47886432D03*
%TD*%
D25*
%TO.C,C115*%
X66789992Y-94429008D03*
X67886008Y-93332992D03*
%TD*%
D21*
%TO.C,R2202*%
X48733000Y-47018000D03*
X50383000Y-47018000D03*
%TD*%
%TO.C,R703*%
X72863000Y-62512000D03*
X74513000Y-62512000D03*
%TD*%
D14*
%TO.C,U2002*%
X95851000Y-109375000D03*
X95851000Y-110645000D03*
X95851000Y-111915000D03*
X95851000Y-113185000D03*
X100801000Y-113185000D03*
X100801000Y-111915000D03*
X100801000Y-110645000D03*
X100801000Y-109375000D03*
%TD*%
%TO.C,U1701*%
X87977000Y-66703000D03*
X87977000Y-67973000D03*
X87977000Y-69243000D03*
X87977000Y-70513000D03*
X92927000Y-70513000D03*
X92927000Y-69243000D03*
X92927000Y-67973000D03*
X92927000Y-66703000D03*
%TD*%
D29*
%TO.C,D6*%
X73180000Y-107698499D03*
X73180000Y-109273501D03*
%TD*%
D19*
%TO.C,R111*%
X47526000Y-78451000D03*
X47526000Y-80101000D03*
%TD*%
D30*
%TO.C,R108*%
X74196000Y-34889000D03*
X74196000Y-33239000D03*
%TD*%
D19*
%TO.C,R1803*%
X103152000Y-83277000D03*
X103152000Y-84927000D03*
%TD*%
D31*
%TO.C,U101*%
X65060839Y-100801336D03*
X63717336Y-102144839D03*
X65714913Y-102798913D03*
%TD*%
D19*
%TO.C,R1203*%
X103152000Y-90389000D03*
X103152000Y-92039000D03*
%TD*%
D14*
%TO.C,U1002*%
X95851000Y-59591000D03*
X95851000Y-60861000D03*
X95851000Y-62131000D03*
X95851000Y-63401000D03*
X100801000Y-63401000D03*
X100801000Y-62131000D03*
X100801000Y-60861000D03*
X100801000Y-59591000D03*
%TD*%
D21*
%TO.C,R2303*%
X59147000Y-47018000D03*
X60797000Y-47018000D03*
%TD*%
%TO.C,R1101*%
X99787000Y-72164000D03*
X101437000Y-72164000D03*
%TD*%
D19*
%TO.C,R1103*%
X103152000Y-76165000D03*
X103152000Y-77815000D03*
%TD*%
D32*
%TO.C,R112*%
X61674637Y-96623363D03*
X62841363Y-95456637D03*
%TD*%
D30*
%TO.C,R110*%
X70640000Y-34889000D03*
X70640000Y-33239000D03*
%TD*%
D16*
%TO.C,C1401*%
X92497000Y-114836000D03*
X90947000Y-114836000D03*
%TD*%
D19*
%TO.C,R1002*%
X103152000Y-58639000D03*
X103152000Y-60289000D03*
%TD*%
D14*
%TO.C,U602*%
X73499000Y-36985000D03*
X73499000Y-38255000D03*
X73499000Y-39525000D03*
X73499000Y-40795000D03*
X78449000Y-40795000D03*
X78449000Y-39525000D03*
X78449000Y-38255000D03*
X78449000Y-36985000D03*
%TD*%
D33*
%TO.C,D1*%
X70656000Y-31219200D03*
X72656000Y-31219200D03*
%TD*%
D25*
%TO.C,C107*%
X56018972Y-68211306D03*
X57114988Y-67115290D03*
%TD*%
D34*
%TO.C,U2201*%
X42573000Y-54306000D03*
X43843000Y-54306000D03*
X45113000Y-54306000D03*
X46383000Y-54306000D03*
X46383000Y-49356000D03*
X45113000Y-49356000D03*
X43843000Y-49356000D03*
X42573000Y-49356000D03*
%TD*%
D14*
%TO.C,U1602*%
X95851000Y-52479000D03*
X95851000Y-53749000D03*
X95851000Y-55019000D03*
X95851000Y-56289000D03*
X100801000Y-56289000D03*
X100801000Y-55019000D03*
X100801000Y-53749000D03*
X100801000Y-52479000D03*
%TD*%
%TO.C,U1201*%
X87977000Y-88039000D03*
X87977000Y-89309000D03*
X87977000Y-90579000D03*
X87977000Y-91849000D03*
X92927000Y-91849000D03*
X92927000Y-90579000D03*
X92927000Y-89309000D03*
X92927000Y-88039000D03*
%TD*%
D35*
%TO.C,J6*%
X109610000Y-59430000D03*
X107070000Y-58160000D03*
X109610000Y-56890000D03*
X107070000Y-55620000D03*
X109610000Y-54350000D03*
X107070000Y-53080000D03*
X109610000Y-51810000D03*
X107070000Y-50540000D03*
X109610000Y-45460000D03*
X107070000Y-44190000D03*
X109610000Y-42920000D03*
X107070000Y-41650000D03*
X109610000Y-40380000D03*
X107070000Y-39110000D03*
X109610000Y-37840000D03*
X107070000Y-36570000D03*
X116190000Y-59430000D03*
X113650000Y-58160000D03*
X116190000Y-56890000D03*
X113650000Y-55620000D03*
X116190000Y-54350000D03*
X113650000Y-53080000D03*
X116190000Y-51810000D03*
X113650000Y-50540000D03*
X116190000Y-45460000D03*
X113650000Y-44190000D03*
X116190000Y-42920000D03*
X113650000Y-41650000D03*
X116190000Y-40380000D03*
X113650000Y-39110000D03*
X116190000Y-37840000D03*
X113650000Y-36570000D03*
D36*
X122540000Y-35300000D03*
X122540000Y-60700000D03*
%TD*%
D16*
%TO.C,C2002*%
X97831000Y-107724000D03*
X96281000Y-107724000D03*
%TD*%
D37*
%TO.C,U203*%
X50726000Y-108726000D03*
X50726000Y-111026000D03*
D38*
X57026000Y-111026000D03*
D37*
X50726000Y-113326000D03*
%TD*%
D16*
%TO.C,C1202*%
X97831000Y-86388000D03*
X96281000Y-86388000D03*
%TD*%
D20*
%TO.C,C2301*%
X48034000Y-56911000D03*
X48034000Y-58461000D03*
%TD*%
D16*
%TO.C,C208*%
X58969000Y-125250000D03*
X57419000Y-125250000D03*
%TD*%
D19*
%TO.C,R1902*%
X103152000Y-94199000D03*
X103152000Y-95849000D03*
%TD*%
D20*
%TO.C,C612*%
X80800000Y-41925000D03*
X80800000Y-43475000D03*
%TD*%
%TO.C,C2401*%
X55146000Y-96281000D03*
X55146000Y-97831000D03*
%TD*%
D18*
%TO.C,C128*%
X72561028Y-68211306D03*
X71465012Y-67115290D03*
%TD*%
D23*
%TO.C,C102*%
X38623000Y-46510000D03*
X40173000Y-46510000D03*
%TD*%
D30*
%TO.C,R104*%
X47780000Y-62321000D03*
X47780000Y-60671000D03*
%TD*%
D16*
%TO.C,C1902*%
X97831000Y-93500000D03*
X96281000Y-93500000D03*
%TD*%
D19*
%TO.C,R1403*%
X103152000Y-118837000D03*
X103152000Y-120487000D03*
%TD*%
D18*
%TO.C,C137*%
X51884008Y-87444008D03*
X50787992Y-86347992D03*
%TD*%
D14*
%TO.C,U1901*%
X87977000Y-95151000D03*
X87977000Y-96421000D03*
X87977000Y-97691000D03*
X87977000Y-98961000D03*
X92927000Y-98961000D03*
X92927000Y-97691000D03*
X92927000Y-96421000D03*
X92927000Y-95151000D03*
%TD*%
D17*
%TO.C,C603*%
X74569357Y-48640208D03*
X75665373Y-49736224D03*
%TD*%
D25*
%TO.C,C129*%
X54470992Y-66743008D03*
X55567008Y-65646992D03*
%TD*%
D14*
%TO.C,U1202*%
X95851000Y-88039000D03*
X95851000Y-89309000D03*
X95851000Y-90579000D03*
X95851000Y-91849000D03*
X100801000Y-91849000D03*
X100801000Y-90579000D03*
X100801000Y-89309000D03*
X100801000Y-88039000D03*
%TD*%
D25*
%TO.C,C110*%
X76493956Y-72162618D03*
X77589972Y-71066602D03*
%TD*%
D20*
%TO.C,C206*%
X59210000Y-115331000D03*
X59210000Y-116881000D03*
%TD*%
D22*
%TO.C,C607*%
X74946951Y-59416515D03*
X73850935Y-60512531D03*
%TD*%
D39*
%TO.C,J4*%
X40414000Y-102644000D03*
D40*
X37874000Y-102644000D03*
X40414000Y-100104000D03*
X37874000Y-100104000D03*
X40414000Y-97564000D03*
X37874000Y-97564000D03*
X40414000Y-95024000D03*
X37874000Y-95024000D03*
X40414000Y-92484000D03*
X37874000Y-92484000D03*
X40414000Y-89944000D03*
X37874000Y-89944000D03*
X40414000Y-87404000D03*
X37874000Y-87404000D03*
X40414000Y-84864000D03*
X37874000Y-84864000D03*
X40414000Y-82324000D03*
X37874000Y-82324000D03*
X40414000Y-79784000D03*
X37874000Y-79784000D03*
X40414000Y-77244000D03*
X37874000Y-77244000D03*
X40414000Y-74704000D03*
X37874000Y-74704000D03*
X40414000Y-72164000D03*
X37874000Y-72164000D03*
%TD*%
D18*
%TO.C,C139*%
X75793920Y-65696834D03*
X74697904Y-64600818D03*
%TD*%
%TO.C,C133*%
X69918008Y-105732008D03*
X68821992Y-104635992D03*
%TD*%
D14*
%TO.C,U1801*%
X87977000Y-80927000D03*
X87977000Y-82197000D03*
X87977000Y-83467000D03*
X87977000Y-84737000D03*
X92927000Y-84737000D03*
X92927000Y-83467000D03*
X92927000Y-82197000D03*
X92927000Y-80927000D03*
%TD*%
D41*
%TO.C,L201*%
X41961000Y-118646000D03*
X48011000Y-118646000D03*
%TD*%
D19*
%TO.C,R1402*%
X103152000Y-115535000D03*
X103152000Y-117185000D03*
%TD*%
D22*
%TO.C,C116*%
X72966008Y-90157992D03*
X71869992Y-91254008D03*
%TD*%
D35*
%TO.C,J9*%
X64798000Y-40952000D03*
X63528000Y-43492000D03*
X62258000Y-40952000D03*
X60988000Y-43492000D03*
X59718000Y-40952000D03*
X58448000Y-43492000D03*
X57178000Y-40952000D03*
X55908000Y-43492000D03*
X50828000Y-40952000D03*
X49558000Y-43492000D03*
X48288000Y-40952000D03*
X47018000Y-43492000D03*
X45748000Y-40952000D03*
X44478000Y-43492000D03*
X43208000Y-40952000D03*
X41938000Y-43492000D03*
D36*
X40668000Y-34602000D03*
X66068000Y-34602000D03*
%TD*%
D25*
%TO.C,C112*%
X75416325Y-71084988D03*
X76512341Y-69988972D03*
%TD*%
D20*
%TO.C,C203*%
X34572000Y-118887000D03*
X34572000Y-120437000D03*
%TD*%
D42*
%TO.C,C202*%
X52352000Y-118187000D03*
X52352000Y-121137000D03*
%TD*%
D19*
%TO.C,R2102*%
X103152000Y-122647000D03*
X103152000Y-124297000D03*
%TD*%
%TO.C,R1802*%
X103152000Y-79975000D03*
X103152000Y-81625000D03*
%TD*%
D43*
%TO.C,RN2402*%
X52282000Y-104538000D03*
D44*
X51482000Y-104538000D03*
X50682000Y-104538000D03*
D43*
X49882000Y-104538000D03*
X49882000Y-106338000D03*
D44*
X50682000Y-106338000D03*
X51482000Y-106338000D03*
D43*
X52282000Y-106338000D03*
%TD*%
D45*
%TO.C,C614*%
X80800000Y-49063000D03*
X80800000Y-47513000D03*
%TD*%
D26*
%TO.C,F82*%
X71272000Y-114074000D03*
X74072000Y-114074000D03*
%TD*%
D32*
%TO.C,R702*%
X76152637Y-67540363D03*
X77319363Y-66373637D03*
%TD*%
D41*
%TO.C,L202*%
X62027000Y-118646000D03*
X68077000Y-118646000D03*
%TD*%
D14*
%TO.C,U1101*%
X87977000Y-73815000D03*
X87977000Y-75085000D03*
X87977000Y-76355000D03*
X87977000Y-77625000D03*
X92927000Y-77625000D03*
X92927000Y-76355000D03*
X92927000Y-75085000D03*
X92927000Y-73815000D03*
%TD*%
D27*
%TO.C,C209*%
X49001000Y-123980000D03*
X46051000Y-123980000D03*
%TD*%
D25*
%TO.C,C135*%
X49912398Y-71444198D03*
X51008414Y-70348182D03*
%TD*%
D16*
%TO.C,C1002*%
X97831000Y-57940000D03*
X96281000Y-57940000D03*
%TD*%
D46*
%TO.C,U201*%
X37124000Y-121570000D03*
X37624000Y-121570000D03*
X38124000Y-121570000D03*
X38624000Y-121570000D03*
D47*
X39274000Y-121100000D03*
D48*
X38724000Y-119800000D03*
D47*
X39274000Y-119300000D03*
D49*
X37224000Y-119220000D03*
D50*
X37224000Y-120380000D03*
D47*
X36474000Y-121100000D03*
%TD*%
D21*
%TO.C,R1701*%
X99787000Y-65052000D03*
X101437000Y-65052000D03*
%TD*%
D30*
%TO.C,R604*%
X84864000Y-35143000D03*
X84864000Y-33493000D03*
%TD*%
D19*
%TO.C,R1702*%
X103152000Y-65751000D03*
X103152000Y-67401000D03*
%TD*%
D14*
%TO.C,U1402*%
X95851000Y-116487000D03*
X95851000Y-117757000D03*
X95851000Y-119027000D03*
X95851000Y-120297000D03*
X100801000Y-120297000D03*
X100801000Y-119027000D03*
X100801000Y-117757000D03*
X100801000Y-116487000D03*
%TD*%
D25*
%TO.C,C109*%
X58788992Y-62679008D03*
X59885008Y-61582992D03*
%TD*%
D28*
%TO.C,R114*%
X57634363Y-94972363D03*
X56467637Y-93805637D03*
%TD*%
D26*
%TO.C,F61*%
X71272000Y-123218000D03*
X74072000Y-123218000D03*
%TD*%
D30*
%TO.C,R2301*%
X55146000Y-50383000D03*
X55146000Y-48733000D03*
%TD*%
D51*
%TO.C,D102*%
X46685500Y-71590000D03*
X46685500Y-69690000D03*
X44810499Y-70640000D03*
%TD*%
D26*
%TO.C,F4*%
X71272000Y-125504000D03*
X74072000Y-125504000D03*
%TD*%
D45*
%TO.C,C213*%
X48288000Y-113325000D03*
X48288000Y-111775000D03*
%TD*%
D32*
%TO.C,R601*%
X51133637Y-68048363D03*
X52300363Y-66881637D03*
%TD*%
D20*
%TO.C,C205*%
X39144000Y-115331000D03*
X39144000Y-116881000D03*
%TD*%
D52*
%TO.C,Q2401*%
X57256500Y-99408000D03*
X57256500Y-101308000D03*
X59131500Y-100358000D03*
%TD*%
D16*
%TO.C,C2101*%
X92243000Y-121948000D03*
X90693000Y-121948000D03*
%TD*%
D21*
%TO.C,R206*%
X39589000Y-127028000D03*
X41239000Y-127028000D03*
%TD*%
D43*
%TO.C,RN2401*%
X48218000Y-104538000D03*
D44*
X47418000Y-104538000D03*
X46618000Y-104538000D03*
D43*
X45818000Y-104538000D03*
X45818000Y-106338000D03*
D44*
X46618000Y-106338000D03*
X47418000Y-106338000D03*
D43*
X48218000Y-106338000D03*
%TD*%
D19*
%TO.C,R1303*%
X103152000Y-104613000D03*
X103152000Y-106263000D03*
%TD*%
D53*
%TO.C,R2404*%
X44033000Y-113058000D03*
X42383000Y-113058000D03*
%TD*%
D21*
%TO.C,R1601*%
X99787000Y-50828000D03*
X101437000Y-50828000D03*
%TD*%
D16*
%TO.C,C1501*%
X80305000Y-114836000D03*
X78755000Y-114836000D03*
%TD*%
D18*
%TO.C,C104*%
X49852008Y-82618008D03*
X48755992Y-81521992D03*
%TD*%
D16*
%TO.C,C1802*%
X97831000Y-79276000D03*
X96281000Y-79276000D03*
%TD*%
D32*
%TO.C,R115*%
X60531637Y-95480363D03*
X61698363Y-94313637D03*
%TD*%
D45*
%TO.C,C101*%
X44478000Y-68113000D03*
X44478000Y-66563000D03*
%TD*%
D14*
%TO.C,U1702*%
X95851000Y-66703000D03*
X95851000Y-67973000D03*
X95851000Y-69243000D03*
X95851000Y-70513000D03*
X100801000Y-70513000D03*
X100801000Y-69243000D03*
X100801000Y-67973000D03*
X100801000Y-66703000D03*
%TD*%
D22*
%TO.C,C701*%
X78046008Y-90919992D03*
X76949992Y-92016008D03*
%TD*%
D34*
%TO.C,U2301*%
X49685000Y-62193000D03*
X50955000Y-62193000D03*
X52225000Y-62193000D03*
X53495000Y-62193000D03*
X53495000Y-57243000D03*
X52225000Y-57243000D03*
X50955000Y-57243000D03*
X49685000Y-57243000D03*
%TD*%
D27*
%TO.C,C210*%
X49001000Y-126774000D03*
X46051000Y-126774000D03*
%TD*%
D42*
%TO.C,C201*%
X32286000Y-118187000D03*
X32286000Y-121137000D03*
%TD*%
D54*
%TO.C,U701*%
X76294001Y-63395500D03*
X77244000Y-63395500D03*
X78193999Y-63395500D03*
X78193999Y-61120500D03*
X76294001Y-61120500D03*
%TD*%
D34*
%TO.C,U2202*%
X49685000Y-54319000D03*
X50955000Y-54319000D03*
X52225000Y-54319000D03*
X53495000Y-54319000D03*
X53495000Y-49369000D03*
X52225000Y-49369000D03*
X50955000Y-49369000D03*
X49685000Y-49369000D03*
%TD*%
D30*
%TO.C,R205*%
X61242000Y-125059000D03*
X61242000Y-123409000D03*
%TD*%
D17*
%TO.C,C103*%
X57096602Y-92260007D03*
X58192618Y-93356023D03*
%TD*%
D22*
%TO.C,C121*%
X53343280Y-68013315D03*
X52247264Y-69109331D03*
%TD*%
D55*
%TO.C,Q101*%
X42512000Y-61417500D03*
X44412000Y-61417500D03*
X43462000Y-59542499D03*
%TD*%
D21*
%TO.C,R208*%
X37303000Y-123472000D03*
X38953000Y-123472000D03*
%TD*%
D30*
%TO.C,R2401*%
X55146000Y-101183000D03*
X55146000Y-99533000D03*
%TD*%
D18*
%TO.C,C134*%
X74357079Y-67133675D03*
X73261063Y-66037659D03*
%TD*%
D20*
%TO.C,C2201*%
X40922000Y-48783000D03*
X40922000Y-50333000D03*
%TD*%
%TO.C,C613*%
X80800000Y-38115000D03*
X80800000Y-39665000D03*
%TD*%
D25*
%TO.C,C117*%
X76949992Y-83888008D03*
X78046008Y-82791992D03*
%TD*%
D30*
%TO.C,R606*%
X84864000Y-42700000D03*
X84864000Y-41050000D03*
%TD*%
D26*
%TO.C,F71*%
X71272000Y-118646000D03*
X74072000Y-118646000D03*
%TD*%
D15*
%TO.C,R117*%
X65127363Y-97742637D03*
X63960637Y-98909363D03*
%TD*%
D19*
%TO.C,R1302*%
X103152000Y-101311000D03*
X103152000Y-102961000D03*
%TD*%
D16*
%TO.C,C1702*%
X97831000Y-65052000D03*
X96281000Y-65052000D03*
%TD*%
D18*
%TO.C,C604*%
X63187008Y-58357269D03*
X62090992Y-57261253D03*
%TD*%
D16*
%TO.C,C1402*%
X97831000Y-114836000D03*
X96281000Y-114836000D03*
%TD*%
D56*
%TO.C,RN2403*%
X42308000Y-105000000D03*
D57*
X42308000Y-105800000D03*
X42308000Y-106600000D03*
D56*
X42308000Y-107400000D03*
X44108000Y-107400000D03*
D57*
X44108000Y-106600000D03*
X44108000Y-105800000D03*
D56*
X44108000Y-105000000D03*
%TD*%
D19*
%TO.C,R1602*%
X103152000Y-51527000D03*
X103152000Y-53177000D03*
%TD*%
D14*
%TO.C,U1902*%
X95851000Y-95151000D03*
X95851000Y-96421000D03*
X95851000Y-97691000D03*
X95851000Y-98961000D03*
X100801000Y-98961000D03*
X100801000Y-97691000D03*
X100801000Y-96421000D03*
X100801000Y-95151000D03*
%TD*%
D25*
%TO.C,C132*%
X74338694Y-89404710D03*
X75434710Y-88308694D03*
%TD*%
D22*
%TO.C,C611*%
X77820633Y-54746782D03*
X76724617Y-55842798D03*
%TD*%
D25*
%TO.C,C130*%
X51349239Y-72881039D03*
X52445255Y-71785023D03*
%TD*%
D16*
%TO.C,C1001*%
X92751000Y-57940000D03*
X91201000Y-57940000D03*
%TD*%
D46*
%TO.C,U202*%
X57190000Y-121570000D03*
X57690000Y-121570000D03*
X58190000Y-121570000D03*
X58690000Y-121570000D03*
D47*
X59340000Y-121100000D03*
D48*
X58790000Y-119800000D03*
D47*
X59340000Y-119300000D03*
D49*
X57290000Y-119220000D03*
D50*
X57290000Y-120380000D03*
D47*
X56540000Y-121100000D03*
%TD*%
D16*
%TO.C,C2001*%
X92751000Y-107724000D03*
X91201000Y-107724000D03*
%TD*%
D17*
%TO.C,C105*%
X58533443Y-90823166D03*
X59629459Y-91919182D03*
%TD*%
D30*
%TO.C,R2402*%
X61496000Y-101437000D03*
X61496000Y-99787000D03*
%TD*%
D21*
%TO.C,R1401*%
X99787000Y-114836000D03*
X101437000Y-114836000D03*
%TD*%
D16*
%TO.C,C1201*%
X92751000Y-86388000D03*
X91201000Y-86388000D03*
%TD*%
D19*
%TO.C,R2103*%
X103152000Y-125949000D03*
X103152000Y-127599000D03*
%TD*%
D21*
%TO.C,R2203*%
X52035000Y-47018000D03*
X53685000Y-47018000D03*
%TD*%
D16*
%TO.C,C1102*%
X97831000Y-72164000D03*
X96281000Y-72164000D03*
%TD*%
D14*
%TO.C,U1502*%
X78325000Y-123599000D03*
X78325000Y-124869000D03*
X78325000Y-126139000D03*
X78325000Y-127409000D03*
X83275000Y-127409000D03*
X83275000Y-126139000D03*
X83275000Y-124869000D03*
X83275000Y-123599000D03*
%TD*%
D19*
%TO.C,R201*%
X35588000Y-123409000D03*
X35588000Y-125059000D03*
%TD*%
D32*
%TO.C,R113*%
X59388637Y-94337363D03*
X60555363Y-93170637D03*
%TD*%
D19*
%TO.C,R103*%
X46256000Y-60671000D03*
X46256000Y-62321000D03*
%TD*%
D16*
%TO.C,C1101*%
X92751000Y-72164000D03*
X91201000Y-72164000D03*
%TD*%
D37*
%TO.C,U204*%
X61902000Y-108726000D03*
X61902000Y-111026000D03*
D38*
X68202000Y-111026000D03*
D37*
X61902000Y-113326000D03*
%TD*%
D30*
%TO.C,R605*%
X83086000Y-35143000D03*
X83086000Y-33493000D03*
%TD*%
D15*
%TO.C,R602*%
X70207363Y-45418637D03*
X69040637Y-46585363D03*
%TD*%
D21*
%TO.C,R1301*%
X99787000Y-100612000D03*
X101437000Y-100612000D03*
%TD*%
D25*
%TO.C,C106*%
X60185992Y-64076008D03*
X61282008Y-62979992D03*
%TD*%
D16*
%TO.C,C136*%
X45761000Y-76990000D03*
X44211000Y-76990000D03*
%TD*%
D17*
%TO.C,C605*%
X73132516Y-50077049D03*
X74228532Y-51173065D03*
%TD*%
D21*
%TO.C,R2302*%
X55845000Y-47018000D03*
X57495000Y-47018000D03*
%TD*%
D30*
%TO.C,R204*%
X41176000Y-125059000D03*
X41176000Y-123409000D03*
%TD*%
D19*
%TO.C,R1603*%
X103152000Y-54829000D03*
X103152000Y-56479000D03*
%TD*%
D27*
%TO.C,C212*%
X69067000Y-126774000D03*
X66117000Y-126774000D03*
%TD*%
D33*
%TO.C,D3*%
X79292000Y-31219200D03*
X81292000Y-31219200D03*
%TD*%
D21*
%TO.C,R1001*%
X99787000Y-57940000D03*
X101437000Y-57940000D03*
%TD*%
D20*
%TO.C,C615*%
X84864000Y-44973000D03*
X84864000Y-46523000D03*
%TD*%
D58*
%TO.C,D103*%
X39652000Y-62289999D03*
X39652000Y-66290001D03*
%TD*%
D33*
%TO.C,D2*%
X74974000Y-31219200D03*
X76974000Y-31219200D03*
%TD*%
D34*
%TO.C,U2302*%
X56797000Y-54319000D03*
X58067000Y-54319000D03*
X59337000Y-54319000D03*
X60607000Y-54319000D03*
X60607000Y-49369000D03*
X59337000Y-49369000D03*
X58067000Y-49369000D03*
X56797000Y-49369000D03*
%TD*%
D59*
%TO.C,RN601*%
X49008132Y-64837076D03*
D60*
X48442447Y-65402761D03*
X47876761Y-65968447D03*
D59*
X47311076Y-66534132D03*
X48583868Y-67806924D03*
D60*
X49149553Y-67241239D03*
X49715239Y-66675553D03*
D59*
X50280924Y-66109868D03*
%TD*%
D19*
%TO.C,R610*%
X71148000Y-39335000D03*
X71148000Y-40985000D03*
%TD*%
D53*
%TO.C,R611*%
X76799000Y-42700000D03*
X75149000Y-42700000D03*
%TD*%
D22*
%TO.C,C606*%
X68902008Y-61709992D03*
X67805992Y-62806008D03*
%TD*%
D53*
%TO.C,R2403*%
X59019000Y-97310000D03*
X57369000Y-97310000D03*
%TD*%
D14*
%TO.C,U1301*%
X87977000Y-102263000D03*
X87977000Y-103533000D03*
X87977000Y-104803000D03*
X87977000Y-106073000D03*
X92927000Y-106073000D03*
X92927000Y-104803000D03*
X92927000Y-103533000D03*
X92927000Y-102263000D03*
%TD*%
D45*
%TO.C,C215*%
X59464000Y-113325000D03*
X59464000Y-111775000D03*
%TD*%
D19*
%TO.C,R101*%
X42954000Y-69561000D03*
X42954000Y-71211000D03*
%TD*%
D61*
%TO.C,D101*%
X39652000Y-58670001D03*
X39652000Y-54669999D03*
%TD*%
D14*
%TO.C,U1601*%
X87977000Y-52479000D03*
X87977000Y-53749000D03*
X87977000Y-55019000D03*
X87977000Y-56289000D03*
X92927000Y-56289000D03*
X92927000Y-55019000D03*
X92927000Y-53749000D03*
X92927000Y-52479000D03*
%TD*%
D21*
%TO.C,R2101*%
X99787000Y-121948000D03*
X101437000Y-121948000D03*
%TD*%
D26*
%TO.C,F9*%
X71272000Y-127790000D03*
X74072000Y-127790000D03*
%TD*%
D62*
%TO.C,U1*%
X62937658Y-64533290D03*
X62584105Y-64886843D03*
X62230551Y-65240396D03*
X61876998Y-65593950D03*
X61523445Y-65947503D03*
X61169891Y-66301057D03*
X60816338Y-66654610D03*
X60462785Y-67008163D03*
X60109231Y-67361717D03*
X59755678Y-67715270D03*
X59402124Y-68068824D03*
X59048571Y-68422377D03*
X58695018Y-68775930D03*
X58341464Y-69129484D03*
X57987911Y-69483037D03*
X57634357Y-69836590D03*
X57280804Y-70190144D03*
X56927251Y-70543697D03*
X56573697Y-70897251D03*
X56220144Y-71250804D03*
X55866590Y-71604357D03*
X55513037Y-71957911D03*
X55159484Y-72311464D03*
X54805930Y-72665018D03*
X54452377Y-73018571D03*
X54098824Y-73372124D03*
X53745270Y-73725678D03*
X53391717Y-74079231D03*
X53038163Y-74432785D03*
X52684610Y-74786338D03*
X52331057Y-75139891D03*
X51977503Y-75493445D03*
X51623950Y-75846998D03*
X51270396Y-76200551D03*
X50916843Y-76554105D03*
X50563290Y-76907658D03*
D63*
X50563290Y-79612342D03*
X50916843Y-79965895D03*
X51270396Y-80319449D03*
X51623950Y-80673002D03*
X51977503Y-81026555D03*
X52331057Y-81380109D03*
X52684610Y-81733662D03*
X53038163Y-82087215D03*
X53391717Y-82440769D03*
X53745270Y-82794322D03*
X54098824Y-83147876D03*
X54452377Y-83501429D03*
X54805930Y-83854982D03*
X55159484Y-84208536D03*
X55513037Y-84562089D03*
X55866590Y-84915643D03*
X56220144Y-85269196D03*
X56573697Y-85622749D03*
X56927251Y-85976303D03*
X57280804Y-86329856D03*
X57634357Y-86683410D03*
X57987911Y-87036963D03*
X58341464Y-87390516D03*
X58695018Y-87744070D03*
X59048571Y-88097623D03*
X59402124Y-88451176D03*
X59755678Y-88804730D03*
X60109231Y-89158283D03*
X60462785Y-89511837D03*
X60816338Y-89865390D03*
X61169891Y-90218943D03*
X61523445Y-90572497D03*
X61876998Y-90926050D03*
X62230551Y-91279604D03*
X62584105Y-91633157D03*
X62937658Y-91986710D03*
D62*
X65642342Y-91986710D03*
X65995895Y-91633157D03*
X66349449Y-91279604D03*
X66703002Y-90926050D03*
X67056555Y-90572497D03*
X67410109Y-90218943D03*
X67763662Y-89865390D03*
X68117215Y-89511837D03*
X68470769Y-89158283D03*
X68824322Y-88804730D03*
X69177876Y-88451176D03*
X69531429Y-88097623D03*
X69884982Y-87744070D03*
X70238536Y-87390516D03*
X70592089Y-87036963D03*
X70945643Y-86683410D03*
X71299196Y-86329856D03*
X71652749Y-85976303D03*
X72006303Y-85622749D03*
X72359856Y-85269196D03*
X72713410Y-84915643D03*
X73066963Y-84562089D03*
X73420516Y-84208536D03*
X73774070Y-83854982D03*
X74127623Y-83501429D03*
X74481176Y-83147876D03*
X74834730Y-82794322D03*
X75188283Y-82440769D03*
X75541837Y-82087215D03*
X75895390Y-81733662D03*
X76248943Y-81380109D03*
X76602497Y-81026555D03*
X76956050Y-80673002D03*
X77309604Y-80319449D03*
X77663157Y-79965895D03*
X78016710Y-79612342D03*
D63*
X78016710Y-76907658D03*
X77663157Y-76554105D03*
X77309604Y-76200551D03*
X76956050Y-75846998D03*
X76602497Y-75493445D03*
X76248943Y-75139891D03*
X75895390Y-74786338D03*
X75541837Y-74432785D03*
X75188283Y-74079231D03*
X74834730Y-73725678D03*
X74481176Y-73372124D03*
X74127623Y-73018571D03*
X73774070Y-72665018D03*
X73420516Y-72311464D03*
X73066963Y-71957911D03*
X72713410Y-71604357D03*
X72359856Y-71250804D03*
X72006303Y-70897251D03*
X71652749Y-70543697D03*
X71299196Y-70190144D03*
X70945643Y-69836590D03*
X70592089Y-69483037D03*
X70238536Y-69129484D03*
X69884982Y-68775930D03*
X69531429Y-68422377D03*
X69177876Y-68068824D03*
X68824322Y-67715270D03*
X68470769Y-67361717D03*
X68117215Y-67008163D03*
X67763662Y-66654610D03*
X67410109Y-66301057D03*
X67056555Y-65947503D03*
X66703002Y-65593950D03*
X66349449Y-65240396D03*
X65995895Y-64886843D03*
X65642342Y-64533290D03*
%TD*%
D19*
%TO.C,R2002*%
X103152000Y-108423000D03*
X103152000Y-110073000D03*
%TD*%
D21*
%TO.C,R1501*%
X82261000Y-121948000D03*
X83911000Y-121948000D03*
%TD*%
D16*
%TO.C,C1601*%
X92751000Y-50828000D03*
X91201000Y-50828000D03*
%TD*%
D19*
%TO.C,R102*%
X42954000Y-66513000D03*
X42954000Y-68163000D03*
%TD*%
D25*
%TO.C,C113*%
X73979484Y-69648147D03*
X75075500Y-68552131D03*
%TD*%
D21*
%TO.C,R1801*%
X99787000Y-79276000D03*
X101437000Y-79276000D03*
%TD*%
D14*
%TO.C,U1001*%
X87977000Y-59591000D03*
X87977000Y-60861000D03*
X87977000Y-62131000D03*
X87977000Y-63401000D03*
X92927000Y-63401000D03*
X92927000Y-62131000D03*
X92927000Y-60861000D03*
X92927000Y-59591000D03*
%TD*%
D16*
%TO.C,C1701*%
X92751000Y-65052000D03*
X91201000Y-65052000D03*
%TD*%
D11*
%TO.C,J3*%
X34932500Y-37500000D03*
D12*
X34932500Y-34000000D03*
%TD*%
D19*
%TO.C,R2003*%
X103152000Y-111725000D03*
X103152000Y-113375000D03*
%TD*%
D14*
%TO.C,U1401*%
X87977000Y-116487000D03*
X87977000Y-117757000D03*
X87977000Y-119027000D03*
X87977000Y-120297000D03*
X92927000Y-120297000D03*
X92927000Y-119027000D03*
X92927000Y-117757000D03*
X92927000Y-116487000D03*
%TD*%
D16*
%TO.C,C1602*%
X97831000Y-50828000D03*
X96281000Y-50828000D03*
%TD*%
D64*
%TO.C,J5*%
X88055000Y-40900000D03*
X103545000Y-40900000D03*
D65*
X89175000Y-32950000D03*
X91715000Y-32950000D03*
X99885000Y-32950000D03*
X102425000Y-32950000D03*
X91360000Y-46750000D03*
X92620000Y-44210000D03*
X93900000Y-46750000D03*
X95160000Y-44210000D03*
X96440000Y-46750000D03*
X97700000Y-44210000D03*
X98980000Y-46750000D03*
D66*
X100240000Y-44210000D03*
D36*
X90085000Y-37850000D03*
X101515000Y-37850000D03*
%TD*%
D14*
%TO.C,U1501*%
X78325000Y-116487000D03*
X78325000Y-117757000D03*
X78325000Y-119027000D03*
X78325000Y-120297000D03*
X83275000Y-120297000D03*
X83275000Y-119027000D03*
X83275000Y-117757000D03*
X83275000Y-116487000D03*
%TD*%
D18*
%TO.C,C108*%
X50110388Y-74138275D03*
X49014372Y-73042259D03*
%TD*%
D25*
%TO.C,C601*%
X65409495Y-47401357D03*
X66505511Y-46305341D03*
%TD*%
D16*
%TO.C,C1801*%
X92751000Y-79276000D03*
X91201000Y-79276000D03*
%TD*%
D21*
%TO.C,R1901*%
X99787000Y-93500000D03*
X101437000Y-93500000D03*
%TD*%
D16*
%TO.C,C1301*%
X92751000Y-100612000D03*
X91201000Y-100612000D03*
%TD*%
D30*
%TO.C,R2201*%
X48034001Y-50383000D03*
X48034001Y-48733000D03*
%TD*%
D53*
%TO.C,R118*%
X45811000Y-81562000D03*
X44161000Y-81562000D03*
%TD*%
D19*
%TO.C,R1003*%
X103152000Y-61941000D03*
X103152000Y-63591000D03*
%TD*%
D67*
%TO.C,U103*%
X45811000Y-78501000D03*
X44161000Y-78501000D03*
X44161000Y-80051000D03*
X45811000Y-80051000D03*
%TD*%
D25*
%TO.C,C127*%
X73261063Y-87608659D03*
X74357079Y-86512643D03*
%TD*%
D68*
%TO.C,U2*%
X83770000Y-58370000D03*
X81230000Y-58370000D03*
X83770000Y-60910000D03*
X81230000Y-60910000D03*
X83770000Y-63450000D03*
X81230000Y-63450000D03*
X83770000Y-65990000D03*
X81230000Y-65990000D03*
X83770000Y-68530000D03*
X81230000Y-68530000D03*
X83770000Y-71070000D03*
X81230000Y-71070000D03*
X83770000Y-73610000D03*
X81230000Y-73610000D03*
X83770000Y-76150000D03*
X81230000Y-76150000D03*
X83770000Y-78690000D03*
X81230000Y-78690000D03*
X83770000Y-81230000D03*
X81230000Y-81230000D03*
X83770000Y-83770000D03*
X81230000Y-83770000D03*
X83770000Y-86310000D03*
X81230000Y-86310000D03*
X83770000Y-88850000D03*
X81230000Y-88850000D03*
X83770000Y-91390000D03*
X81230000Y-91390000D03*
X83770000Y-93930000D03*
X81230000Y-93930000D03*
X83770000Y-96470000D03*
X81230000Y-96470000D03*
X83770000Y-99010000D03*
X81230000Y-99010000D03*
X83770000Y-101550000D03*
X81230000Y-101550000D03*
X83770000Y-104090000D03*
X81230000Y-104090000D03*
X83770000Y-106630000D03*
D69*
X81230000Y-106630000D03*
D70*
X33500000Y-53500000D03*
X33500000Y-111500000D03*
X82500000Y-53500000D03*
X82500000Y-111500000D03*
%TD*%
D26*
%TO.C,F62*%
X71272000Y-120932000D03*
X74072000Y-120932000D03*
%TD*%
D21*
%TO.C,R1201*%
X99787000Y-86388000D03*
X101437000Y-86388000D03*
%TD*%
D56*
%TO.C,RN2404*%
X42308000Y-109064000D03*
D57*
X42308000Y-109864000D03*
X42308000Y-110664000D03*
D56*
X42308000Y-111464000D03*
X44108000Y-111464000D03*
D57*
X44108000Y-110664000D03*
X44108000Y-109864000D03*
D56*
X44108000Y-109064000D03*
%TD*%
D16*
%TO.C,C1502*%
X80305000Y-121948000D03*
X78755000Y-121948000D03*
%TD*%
D71*
%TO.C,U102*%
X69982949Y-97768872D03*
X69084924Y-98666898D03*
X68186898Y-99564924D03*
X67288872Y-100462949D03*
X70789051Y-103963128D03*
X71687076Y-103065102D03*
X72585102Y-102167076D03*
X73483128Y-101269051D03*
%TD*%
D22*
%TO.C,C124*%
X54780121Y-69450156D03*
X53684105Y-70546172D03*
%TD*%
D14*
%TO.C,U2001*%
X87977000Y-109375000D03*
X87977000Y-110645000D03*
X87977000Y-111915000D03*
X87977000Y-113185000D03*
X92927000Y-113185000D03*
X92927000Y-111915000D03*
X92927000Y-110645000D03*
X92927000Y-109375000D03*
%TD*%
D18*
%TO.C,C111*%
X71842608Y-64619203D03*
X70746592Y-63523187D03*
%TD*%
D27*
%TO.C,C214*%
X57383000Y-105692000D03*
X54433000Y-105692000D03*
%TD*%
D20*
%TO.C,C204*%
X54638000Y-118887000D03*
X54638000Y-120437000D03*
%TD*%
D19*
%TO.C,R1102*%
X103152000Y-72863000D03*
X103152000Y-74513000D03*
%TD*%
D21*
%TO.C,R2001*%
X99787000Y-107724000D03*
X101437000Y-107724000D03*
%TD*%
D35*
%TO.C,J8*%
X109610000Y-123430000D03*
X107070000Y-122160000D03*
X109610000Y-120890000D03*
X107070000Y-119620000D03*
X109610000Y-118350000D03*
X107070000Y-117080000D03*
X109610000Y-115810000D03*
X107070000Y-114540000D03*
X109610000Y-109460000D03*
X107070000Y-108190000D03*
X109610000Y-106920000D03*
X107070000Y-105650000D03*
X109610000Y-104380000D03*
X107070000Y-103110000D03*
X109610000Y-101840000D03*
X107070000Y-100570000D03*
X116190000Y-123430000D03*
X113650000Y-122160000D03*
X116190000Y-120890000D03*
X113650000Y-119620000D03*
X116190000Y-118350000D03*
X113650000Y-117080000D03*
X116190000Y-115810000D03*
X113650000Y-114540000D03*
X116190000Y-109460000D03*
X113650000Y-108190000D03*
X116190000Y-106920000D03*
X113650000Y-105650000D03*
X116190000Y-104380000D03*
X113650000Y-103110000D03*
X116190000Y-101840000D03*
X113650000Y-100570000D03*
D36*
X122540000Y-99300000D03*
X122540000Y-124700000D03*
%TD*%
D20*
%TO.C,C702*%
X78260000Y-109489000D03*
X78260000Y-111039000D03*
%TD*%
D18*
%TO.C,C114*%
X70405767Y-66056044D03*
X69309751Y-64960028D03*
%TD*%
D30*
%TO.C,R107*%
X72418000Y-34889000D03*
X72418000Y-33239000D03*
%TD*%
%TO.C,R109*%
X75974000Y-34889000D03*
X75974000Y-33239000D03*
%TD*%
D19*
%TO.C,R608*%
X84864000Y-48288000D03*
X84864000Y-49938000D03*
%TD*%
%TO.C,R203*%
X55654000Y-123409000D03*
X55654000Y-125059000D03*
%TD*%
D72*
%TO.C,U601*%
X70368788Y-60541876D03*
X70722342Y-60188322D03*
X71075895Y-59834769D03*
X71429449Y-59481215D03*
X71783002Y-59127662D03*
X72136555Y-58774109D03*
X72490109Y-58420555D03*
X72843662Y-58067002D03*
X73197215Y-57713449D03*
X73550769Y-57359895D03*
X73904322Y-57006342D03*
X74257876Y-56652788D03*
D73*
X74257876Y-54655212D03*
X73904322Y-54301658D03*
X73550769Y-53948105D03*
X73197215Y-53594551D03*
X72843662Y-53240998D03*
X72490109Y-52887445D03*
X72136555Y-52533891D03*
X71783002Y-52180338D03*
X71429449Y-51826785D03*
X71075895Y-51473231D03*
X70722342Y-51119678D03*
X70368788Y-50766124D03*
D72*
X68371212Y-50766124D03*
X68017658Y-51119678D03*
X67664105Y-51473231D03*
X67310551Y-51826785D03*
X66956998Y-52180338D03*
X66603445Y-52533891D03*
X66249891Y-52887445D03*
X65896338Y-53240998D03*
X65542785Y-53594551D03*
X65189231Y-53948105D03*
X64835678Y-54301658D03*
X64482124Y-54655212D03*
D73*
X64482124Y-56652788D03*
X64835678Y-57006342D03*
X65189231Y-57359895D03*
X65542785Y-57713449D03*
X65896338Y-58067002D03*
X66249891Y-58420555D03*
X66603445Y-58774109D03*
X66956998Y-59127662D03*
X67310551Y-59481215D03*
X67664105Y-59834769D03*
X68017658Y-60188322D03*
X68371212Y-60541876D03*
%TD*%
D14*
%TO.C,U2102*%
X95851000Y-123599000D03*
X95851000Y-124869000D03*
X95851000Y-126139000D03*
X95851000Y-127409000D03*
X100801000Y-127409000D03*
X100801000Y-126139000D03*
X100801000Y-124869000D03*
X100801000Y-123599000D03*
%TD*%
D19*
%TO.C,R1503*%
X85626000Y-125949000D03*
X85626000Y-127599000D03*
%TD*%
D14*
%TO.C,U2101*%
X87977000Y-123599000D03*
X87977000Y-124869000D03*
X87977000Y-126139000D03*
X87977000Y-127409000D03*
X92927000Y-127409000D03*
X92927000Y-126139000D03*
X92927000Y-124869000D03*
X92927000Y-123599000D03*
%TD*%
D32*
%TO.C,R701*%
X77295637Y-68683363D03*
X78462363Y-67516637D03*
%TD*%
D20*
%TO.C,C2302*%
X55146000Y-52339000D03*
X55146000Y-53889000D03*
%TD*%
D21*
%TO.C,R210*%
X56607000Y-127028000D03*
X58257000Y-127028000D03*
%TD*%
%TO.C,R202*%
X65497000Y-105692000D03*
X67147000Y-105692000D03*
%TD*%
D19*
%TO.C,R212*%
X59083000Y-104804000D03*
X59083000Y-106454000D03*
%TD*%
D18*
%TO.C,C131*%
X53281008Y-86047008D03*
X52184992Y-84950992D03*
%TD*%
%TO.C,C125*%
X48673547Y-75575116D03*
X47577531Y-74479100D03*
%TD*%
D25*
%TO.C,C118*%
X76949992Y-86428008D03*
X78046008Y-85331992D03*
%TD*%
D26*
%TO.C,F72*%
X71272000Y-116360000D03*
X74072000Y-116360000D03*
%TD*%
D16*
%TO.C,C1901*%
X92751000Y-93500000D03*
X91201000Y-93500000D03*
%TD*%
D56*
%TO.C,RN602*%
X62374000Y-49374000D03*
D57*
X62374000Y-50174000D03*
X62374000Y-50974000D03*
D56*
X62374000Y-51774000D03*
X64174000Y-51774000D03*
D57*
X64174000Y-50974000D03*
X64174000Y-50174000D03*
D56*
X64174000Y-49374000D03*
%TD*%
D29*
%TO.C,D5*%
X75466000Y-107698499D03*
X75466000Y-109273501D03*
%TD*%
D35*
%TO.C,J7*%
X109610000Y-91430000D03*
X107070000Y-90160000D03*
X109610000Y-88890000D03*
X107070000Y-87620000D03*
X109610000Y-86350000D03*
X107070000Y-85080000D03*
X109610000Y-83810000D03*
X107070000Y-82540000D03*
X109610000Y-77460000D03*
X107070000Y-76190000D03*
X109610000Y-74920000D03*
X107070000Y-73650000D03*
X109610000Y-72380000D03*
X107070000Y-71110000D03*
X109610000Y-69840000D03*
X107070000Y-68570000D03*
X116190000Y-91430000D03*
X113650000Y-90160000D03*
X116190000Y-88890000D03*
X113650000Y-87620000D03*
X116190000Y-86350000D03*
X113650000Y-85080000D03*
X116190000Y-83810000D03*
X113650000Y-82540000D03*
X116190000Y-77460000D03*
X113650000Y-76190000D03*
X116190000Y-74920000D03*
X113650000Y-73650000D03*
X116190000Y-72380000D03*
X113650000Y-71110000D03*
X116190000Y-69840000D03*
X113650000Y-68570000D03*
D36*
X122540000Y-67300000D03*
X122540000Y-92700000D03*
%TD*%
D33*
%TO.C,D4*%
X83610000Y-31219200D03*
X85610000Y-31219200D03*
%TD*%
D21*
%TO.C,R211*%
X57369000Y-123472000D03*
X59019000Y-123472000D03*
%TD*%
D25*
%TO.C,C602*%
X66846336Y-48838198D03*
X67942352Y-47742182D03*
%TD*%
D27*
%TO.C,C216*%
X63733000Y-105946000D03*
X60783000Y-105946000D03*
%TD*%
D19*
%TO.C,R1202*%
X103152000Y-87087000D03*
X103152000Y-88737000D03*
%TD*%
D25*
%TO.C,C138*%
X75775535Y-90841551D03*
X76871551Y-89745535D03*
%TD*%
D30*
%TO.C,R607*%
X83086000Y-43525000D03*
X83086000Y-41875000D03*
%TD*%
D74*
%TO.C,L601*%
X72174699Y-46012699D03*
X73677301Y-47515301D03*
%TD*%
%TO.C,L602*%
X76746699Y-50838699D03*
X78249301Y-52341301D03*
%TD*%
D75*
%TO.C,L603*%
X82785500Y-37366000D03*
X84910500Y-37366000D03*
%TD*%
D10*
%TO.C,REF\u002A\u002A*%
X122456000Y-31016000D03*
%TD*%
M02*
