%TF.GenerationSoftware,KiCad,Pcbnew,8.0.5*%
%TF.CreationDate,2025-02-16T21:21:17+01:00*%
%TF.ProjectId,stmbl-fpga-master,73746d62-6c2d-4667-9067-612d6d617374,rev?*%
%TF.SameCoordinates,Original*%
%TF.FileFunction,Soldermask,Bot*%
%TF.FilePolarity,Negative*%
%FSLAX46Y46*%
G04 Gerber Fmt 4.6, Leading zero omitted, Abs format (unit mm)*
G04 Created by KiCad (PCBNEW 8.0.5) date 2025-02-16 21:21:17*
%MOMM*%
%LPD*%
G01*
G04 APERTURE LIST*
G04 Aperture macros list*
%AMRoundRect*
0 Rectangle with rounded corners*
0 $1 Rounding radius*
0 $2 $3 $4 $5 $6 $7 $8 $9 X,Y pos of 4 corners*
0 Add a 4 corners polygon primitive as box body*
4,1,4,$2,$3,$4,$5,$6,$7,$8,$9,$2,$3,0*
0 Add four circle primitives for the rounded corners*
1,1,$1+$1,$2,$3*
1,1,$1+$1,$4,$5*
1,1,$1+$1,$6,$7*
1,1,$1+$1,$8,$9*
0 Add four rect primitives between the rounded corners*
20,1,$1+$1,$2,$3,$4,$5,0*
20,1,$1+$1,$4,$5,$6,$7,0*
20,1,$1+$1,$6,$7,$8,$9,0*
20,1,$1+$1,$8,$9,$2,$3,0*%
%AMRotRect*
0 Rectangle, with rotation*
0 The origin of the aperture is its center*
0 $1 length*
0 $2 width*
0 $3 Rotation angle, in degrees counterclockwise*
0 Add horizontal line*
21,1,$1,$2,0,0,$3*%
%AMFreePoly0*
4,1,19,0.550000,-0.750000,0.000000,-0.750000,0.000000,-0.744912,-0.071157,-0.744911,-0.207708,-0.704816,-0.327430,-0.627875,-0.420627,-0.520320,-0.479746,-0.390866,-0.500000,-0.250000,-0.500000,0.250000,-0.479746,0.390866,-0.420627,0.520320,-0.327430,0.627875,-0.207708,0.704816,-0.071157,0.744911,0.000000,0.744912,0.000000,0.750000,0.550000,0.750000,0.550000,-0.750000,0.550000,-0.750000,
$1*%
%AMFreePoly1*
4,1,19,0.000000,0.744912,0.071157,0.744911,0.207708,0.704816,0.327430,0.627875,0.420627,0.520320,0.479746,0.390866,0.500000,0.250000,0.500000,-0.250000,0.479746,-0.390866,0.420627,-0.520320,0.327430,-0.627875,0.207708,-0.704816,0.071157,-0.744911,0.000000,-0.744912,0.000000,-0.750000,-0.550000,-0.750000,-0.550000,0.750000,0.000000,0.750000,0.000000,0.744912,0.000000,0.744912,
$1*%
%AMFreePoly2*
4,1,19,0.500000,-0.750000,0.000000,-0.750000,0.000000,-0.744911,-0.071157,-0.744911,-0.207708,-0.704816,-0.327430,-0.627875,-0.420627,-0.520320,-0.479746,-0.390866,-0.500000,-0.250000,-0.500000,0.250000,-0.479746,0.390866,-0.420627,0.520320,-0.327430,0.627875,-0.207708,0.704816,-0.071157,0.744911,0.000000,0.744911,0.000000,0.750000,0.500000,0.750000,0.500000,-0.750000,0.500000,-0.750000,
$1*%
%AMFreePoly3*
4,1,19,0.000000,0.744911,0.071157,0.744911,0.207708,0.704816,0.327430,0.627875,0.420627,0.520320,0.479746,0.390866,0.500000,0.250000,0.500000,-0.250000,0.479746,-0.390866,0.420627,-0.520320,0.327430,-0.627875,0.207708,-0.704816,0.071157,-0.744911,0.000000,-0.744911,0.000000,-0.750000,-0.500000,-0.750000,-0.500000,0.750000,0.000000,0.750000,0.000000,0.744911,0.000000,0.744911,
$1*%
G04 Aperture macros list end*
%ADD10C,1.400000*%
%ADD11O,3.600000X1.800000*%
%ADD12RoundRect,0.250000X-1.550000X0.650000X-1.550000X-0.650000X1.550000X-0.650000X1.550000X0.650000X0*%
%ADD13C,1.600000*%
%ADD14C,3.250000*%
%ADD15RoundRect,0.250000X0.600000X0.600000X-0.600000X0.600000X-0.600000X-0.600000X0.600000X-0.600000X0*%
%ADD16C,1.700000*%
%ADD17C,2.500000*%
%ADD18C,1.500000*%
%ADD19RoundRect,0.250500X0.499500X0.499500X-0.499500X0.499500X-0.499500X-0.499500X0.499500X-0.499500X0*%
%ADD20O,1.700000X1.700000*%
%ADD21R,1.700000X1.700000*%
%ADD22C,6.000000*%
%ADD23FreePoly0,135.000000*%
%ADD24RotRect,1.000000X1.500000X135.000000*%
%ADD25FreePoly1,135.000000*%
%ADD26FreePoly0,180.000000*%
%ADD27R,1.000000X1.500000*%
%ADD28FreePoly1,180.000000*%
%ADD29FreePoly0,0.000000*%
%ADD30FreePoly1,0.000000*%
%ADD31FreePoly2,180.000000*%
%ADD32FreePoly3,180.000000*%
%ADD33FreePoly0,270.000000*%
%ADD34R,1.500000X1.000000*%
%ADD35FreePoly1,270.000000*%
G04 APERTURE END LIST*
D10*
%TO.C,REF\u002A\u002A*%
X32540000Y-31016000D03*
%TD*%
%TO.C,REF\u002A\u002A*%
X127028000Y-128806000D03*
%TD*%
D11*
%TO.C,J2*%
X34932500Y-47250000D03*
D12*
X34932500Y-43750000D03*
%TD*%
D11*
%TO.C,J1*%
X34932500Y-63305000D03*
D12*
X34932500Y-59805000D03*
%TD*%
D13*
%TO.C,J6*%
X109610000Y-59430000D03*
X107070000Y-58160000D03*
X109610000Y-56890000D03*
X107070000Y-55620000D03*
X109610000Y-54350000D03*
X107070000Y-53080000D03*
X109610000Y-51810000D03*
X107070000Y-50540000D03*
X109610000Y-45460000D03*
X107070000Y-44190000D03*
X109610000Y-42920000D03*
X107070000Y-41650000D03*
X109610000Y-40380000D03*
X107070000Y-39110000D03*
X109610000Y-37840000D03*
X107070000Y-36570000D03*
X116190000Y-59430000D03*
X113650000Y-58160000D03*
X116190000Y-56890000D03*
X113650000Y-55620000D03*
X116190000Y-54350000D03*
X113650000Y-53080000D03*
X116190000Y-51810000D03*
X113650000Y-50540000D03*
X116190000Y-45460000D03*
X113650000Y-44190000D03*
X116190000Y-42920000D03*
X113650000Y-41650000D03*
X116190000Y-40380000D03*
X113650000Y-39110000D03*
X116190000Y-37840000D03*
X113650000Y-36570000D03*
D14*
X122540000Y-35300000D03*
X122540000Y-60700000D03*
%TD*%
D15*
%TO.C,J4*%
X40414000Y-102644000D03*
D16*
X37874000Y-102644000D03*
X40414000Y-100104000D03*
X37874000Y-100104000D03*
X40414000Y-97564000D03*
X37874000Y-97564000D03*
X40414000Y-95024000D03*
X37874000Y-95024000D03*
X40414000Y-92484000D03*
X37874000Y-92484000D03*
X40414000Y-89944000D03*
X37874000Y-89944000D03*
X40414000Y-87404000D03*
X37874000Y-87404000D03*
X40414000Y-84864000D03*
X37874000Y-84864000D03*
X40414000Y-82324000D03*
X37874000Y-82324000D03*
X40414000Y-79784000D03*
X37874000Y-79784000D03*
X40414000Y-77244000D03*
X37874000Y-77244000D03*
X40414000Y-74704000D03*
X37874000Y-74704000D03*
X40414000Y-72164000D03*
X37874000Y-72164000D03*
%TD*%
D13*
%TO.C,J9*%
X64798000Y-40952000D03*
X63528000Y-43492000D03*
X62258000Y-40952000D03*
X60988000Y-43492000D03*
X59718000Y-40952000D03*
X58448000Y-43492000D03*
X57178000Y-40952000D03*
X55908000Y-43492000D03*
X50828000Y-40952000D03*
X49558000Y-43492000D03*
X48288000Y-40952000D03*
X47018000Y-43492000D03*
X45748000Y-40952000D03*
X44478000Y-43492000D03*
X43208000Y-40952000D03*
X41938000Y-43492000D03*
D14*
X40668000Y-34602000D03*
X66068000Y-34602000D03*
%TD*%
D11*
%TO.C,J3*%
X34932500Y-37500000D03*
D12*
X34932500Y-34000000D03*
%TD*%
D17*
%TO.C,J5*%
X88055000Y-40900000D03*
X103545000Y-40900000D03*
D18*
X89175000Y-32950000D03*
X91715000Y-32950000D03*
X99885000Y-32950000D03*
X102425000Y-32950000D03*
X91360000Y-46750000D03*
X92620000Y-44210000D03*
X93900000Y-46750000D03*
X95160000Y-44210000D03*
X96440000Y-46750000D03*
X97700000Y-44210000D03*
X98980000Y-46750000D03*
D19*
X100240000Y-44210000D03*
D14*
X90085000Y-37850000D03*
X101515000Y-37850000D03*
%TD*%
D20*
%TO.C,U2*%
X83770000Y-58370000D03*
X81230000Y-58370000D03*
X83770000Y-60910000D03*
X81230000Y-60910000D03*
X83770000Y-63450000D03*
X81230000Y-63450000D03*
X83770000Y-65990000D03*
X81230000Y-65990000D03*
X83770000Y-68530000D03*
X81230000Y-68530000D03*
X83770000Y-71070000D03*
X81230000Y-71070000D03*
X83770000Y-73610000D03*
X81230000Y-73610000D03*
X83770000Y-76150000D03*
X81230000Y-76150000D03*
X83770000Y-78690000D03*
X81230000Y-78690000D03*
X83770000Y-81230000D03*
X81230000Y-81230000D03*
X83770000Y-83770000D03*
X81230000Y-83770000D03*
X83770000Y-86310000D03*
X81230000Y-86310000D03*
X83770000Y-88850000D03*
X81230000Y-88850000D03*
X83770000Y-91390000D03*
X81230000Y-91390000D03*
X83770000Y-93930000D03*
X81230000Y-93930000D03*
X83770000Y-96470000D03*
X81230000Y-96470000D03*
X83770000Y-99010000D03*
X81230000Y-99010000D03*
X83770000Y-101550000D03*
X81230000Y-101550000D03*
X83770000Y-104090000D03*
X81230000Y-104090000D03*
X83770000Y-106630000D03*
D21*
X81230000Y-106630000D03*
D22*
X33500000Y-53500000D03*
X33500000Y-111500000D03*
X82500000Y-53500000D03*
X82500000Y-111500000D03*
%TD*%
D13*
%TO.C,J8*%
X109610000Y-123430000D03*
X107070000Y-122160000D03*
X109610000Y-120890000D03*
X107070000Y-119620000D03*
X109610000Y-118350000D03*
X107070000Y-117080000D03*
X109610000Y-115810000D03*
X107070000Y-114540000D03*
X109610000Y-109460000D03*
X107070000Y-108190000D03*
X109610000Y-106920000D03*
X107070000Y-105650000D03*
X109610000Y-104380000D03*
X107070000Y-103110000D03*
X109610000Y-101840000D03*
X107070000Y-100570000D03*
X116190000Y-123430000D03*
X113650000Y-122160000D03*
X116190000Y-120890000D03*
X113650000Y-119620000D03*
X116190000Y-118350000D03*
X113650000Y-117080000D03*
X116190000Y-115810000D03*
X113650000Y-114540000D03*
X116190000Y-109460000D03*
X113650000Y-108190000D03*
X116190000Y-106920000D03*
X113650000Y-105650000D03*
X116190000Y-104380000D03*
X113650000Y-103110000D03*
X116190000Y-101840000D03*
X113650000Y-100570000D03*
D14*
X122540000Y-99300000D03*
X122540000Y-124700000D03*
%TD*%
D13*
%TO.C,J7*%
X109610000Y-91430000D03*
X107070000Y-90160000D03*
X109610000Y-88890000D03*
X107070000Y-87620000D03*
X109610000Y-86350000D03*
X107070000Y-85080000D03*
X109610000Y-83810000D03*
X107070000Y-82540000D03*
X109610000Y-77460000D03*
X107070000Y-76190000D03*
X109610000Y-74920000D03*
X107070000Y-73650000D03*
X109610000Y-72380000D03*
X107070000Y-71110000D03*
X109610000Y-69840000D03*
X107070000Y-68570000D03*
X116190000Y-91430000D03*
X113650000Y-90160000D03*
X116190000Y-88890000D03*
X113650000Y-87620000D03*
X116190000Y-86350000D03*
X113650000Y-85080000D03*
X116190000Y-83810000D03*
X113650000Y-82540000D03*
X116190000Y-77460000D03*
X113650000Y-76190000D03*
X116190000Y-74920000D03*
X113650000Y-73650000D03*
X116190000Y-72380000D03*
X113650000Y-71110000D03*
X116190000Y-69840000D03*
X113650000Y-68570000D03*
D14*
X122540000Y-67300000D03*
X122540000Y-92700000D03*
%TD*%
D23*
%TO.C,JP1*%
X69781239Y-67495239D03*
D24*
X68862000Y-66576000D03*
D25*
X67942761Y-65656761D03*
%TD*%
D26*
%TO.C,JP42*%
X49080000Y-93754000D03*
D27*
X47780000Y-93754000D03*
D28*
X46480000Y-93754000D03*
%TD*%
D29*
%TO.C,JP41*%
X47750000Y-99850000D03*
D27*
X49050000Y-99850000D03*
D30*
X50350000Y-99850000D03*
%TD*%
D31*
%TO.C,JP2*%
X77894000Y-62258000D03*
D32*
X76594000Y-62258000D03*
%TD*%
D33*
%TO.C,JP43*%
X53368000Y-33526000D03*
D34*
X53368000Y-34826000D03*
D35*
X53368000Y-36126000D03*
%TD*%
D20*
%TO.C,J10*%
X67084000Y-84610000D03*
X67084000Y-82070000D03*
X67084000Y-79530000D03*
X67084000Y-76989999D03*
X67084000Y-74450000D03*
D21*
X67084000Y-71910000D03*
%TD*%
D10*
%TO.C,REF\u002A\u002A*%
X122456000Y-31016000D03*
%TD*%
M02*
