M48
; DRILL file {KiCad 8.0.5} date 2025-02-16T21:21:17+0100
; FORMAT={-:-/ absolute / inch / decimal}
; #@! TF.CreationDate,2025-02-16T21:21:17+01:00
; #@! TF.GenerationSoftware,Kicad,Pcbnew,8.0.5
; #@! TF.FileFunction,Plated,1,4,PTH
FMAT,2
INCH
; #@! TA.AperFunction,Plated,PTH,ViaDrill
T1C0.0118
; #@! TA.AperFunction,Plated,PTH,ViaDrill
T2C0.0157
; #@! TA.AperFunction,Plated,PTH,ViaDrill
T3C0.0236
; #@! TA.AperFunction,Plated,PTH,ComponentDrill
T4C0.0350
; #@! TA.AperFunction,Plated,PTH,ComponentDrill
T5C0.0394
; #@! TA.AperFunction,Plated,PTH,ComponentDrill
T6C0.0402
; #@! TA.AperFunction,Plated,PTH,ComponentDrill
T7C0.0472
; #@! TA.AperFunction,Plated,PTH,ComponentDrill
T8C0.0642
%
G90
G05
T1
X1.6911Y-3.9311
X1.7761Y-2.2011
X1.7961Y-3.2561
X1.8261Y-2.2011
X1.8311Y-3.5411
X1.8511Y-3.0411
X1.9561Y-2.1961
X1.9611Y-2.5211
X1.9911Y-3.4511
X2.0011Y-3.5211
X2.0061Y-2.1961
X2.0311Y-3.5411
X2.0561Y-2.1961
X2.0561Y-2.5111
X2.0911Y-3.0411
X2.1061Y-2.5111
X2.1161Y-3.0161
X2.1211Y-3.1061
X2.1411Y-2.9911
X2.1461Y-3.1311
X2.1611Y-3.6611
X2.1661Y-2.9661
X2.1711Y-3.1561
X2.1711Y-4.0211
X2.1911Y-2.9411
X2.1961Y-3.1811
X2.1961Y-3.7211
X2.2161Y-2.9161
X2.2211Y-3.2061
X2.2261Y-4.8311
X2.2361Y-2.2011
X2.2411Y-2.8911
X2.2461Y-3.2311
X2.2661Y-2.8661
X2.2711Y-3.3161
X2.2911Y-2.8411
X2.3161Y-2.8161
X2.3711Y-2.2761
X2.3841Y-3.7141
X2.4561Y-2.0811
X2.4911Y-2.0811
X2.5011Y-3.5211
X2.5061Y-3.4561
X2.5161Y-2.2111
X2.5211Y-2.7011
X2.5511Y-2.6711
X2.5561Y-3.8111
X2.5611Y-4.0811
X2.5611Y-4.7411
X2.5811Y-3.4961
X2.5811Y-3.5411
X2.5861Y-2.2011
X2.5861Y-2.6711
X2.6111Y-2.2211
X2.6111Y-3.8411
X2.6211Y-2.6611
X2.6361Y-2.2411
X2.6611Y-2.2611
X2.6861Y-2.2811
X2.7011Y-3.4211
X2.7111Y-2.3011
X2.7311Y-2.8411
X2.7361Y-2.2811
X2.7411Y-1.3711
X2.7411Y-3.1811
X2.7411Y-3.3311
X2.7411Y-3.3761
X2.7511Y-2.8711
X2.7611Y-2.2111
X2.7611Y-2.2511
X2.7711Y-2.9011
X2.7877Y-2.0921
X2.7911Y-2.1811
X2.7911Y-2.2811
X2.7911Y-2.9311
X2.8111Y-2.9611
X2.8211Y-3.1111
X2.8261Y-3.2761
X2.8311Y-2.9911
X2.8442Y-2.1487
X2.8511Y-3.0211
X2.8561Y-3.2661
X2.8661Y-3.2361
X2.8711Y-2.1811
X2.8711Y-3.0511
X2.8725Y-2.0214
X2.8761Y-3.2061
X2.8811Y-3.8811
X2.8911Y-3.0811
X2.9061Y-3.1961
X2.915Y-2.0638
X2.9261Y-4.3011
X2.9361Y-3.1861
X2.9461Y-2.2811
X2.9611Y-1.4561
X2.9611Y-1.5061
X2.9611Y-1.7211
X2.9711Y-2.2561
X2.9711Y-2.4511
X2.9711Y-4.0511
X3.0111Y-3.1211
X3.0211Y-2.6811
X3.0261Y-3.7511
X3.0711Y-3.2111
X3.0761Y-1.2661
X3.1011Y-2.0111
X3.1311Y-1.9811
X3.1711Y-1.9811
X3.2011Y-1.2811
X3.2211Y-1.7611
X3.2311Y-1.6811
X3.2311Y-1.8611
X3.2311Y-1.9011
X3.2711Y-1.4211
X3.3361Y-4.6361
X3.3361Y-4.6861
X3.3411Y-1.2811
X3.3411Y-1.4211
X3.3711Y-3.4511
X3.3711Y-3.5511
X3.3711Y-4.7911
X3.4111Y-4.8211
X3.4611Y-4.8211
X3.4711Y-2.2811
X3.4711Y-2.5711
X3.4711Y-2.8211
X3.4711Y-3.1011
X3.4711Y-3.6611
X3.4711Y-3.9411
X3.6011Y-4.5861
X3.6011Y-4.8311
X3.6911Y-4.8311
X3.7011Y-4.5511
X3.7161Y-2.0661
X3.7161Y-2.1161
X3.7161Y-2.1661
X3.7161Y-2.3461
X3.7161Y-2.3961
X3.7161Y-2.4461
X3.7161Y-2.6261
X3.7161Y-2.6761
X3.7161Y-2.7261
X3.7161Y-2.9061
X3.7161Y-2.9561
X3.7161Y-3.0061
X3.7161Y-3.1861
X3.7161Y-3.2361
X3.7161Y-3.2861
X3.7161Y-3.4661
X3.7161Y-3.5161
X3.7161Y-3.5661
X3.7161Y-3.7461
X3.7161Y-3.7961
X3.7161Y-3.8461
X3.7161Y-4.0261
X3.7161Y-4.0761
X3.7161Y-4.1261
X3.7161Y-4.3061
X3.7161Y-4.3561
X3.7161Y-4.4061
T2
X1.3761Y-4.9611
X1.3861Y-5.0011
X1.4061Y-4.9611
X1.4361Y-4.9611
X1.5711Y-4.8411
X1.5711Y-4.8711
X1.5711Y-4.9011
X1.6111Y-1.8811
X1.6111Y-2.0211
X1.6211Y-1.8311
X1.6211Y-4.9611
X1.7211Y-4.0811
X1.7411Y-2.9911
X1.7711Y-4.0811
X1.8011Y-2.9911
X1.8911Y-2.0211
X1.8911Y-2.1611
X1.8911Y-2.2011
X1.8911Y-2.3411
X1.8911Y-3.2361
X1.9018Y-2.9043
X1.9311Y-5.0511
X1.9361Y-3.2811
X1.9442Y-2.9468
X1.9937Y-2.8407
X2.0261Y-3.3711
X2.0361Y-2.7961
X2.0711Y-3.4161
X2.0856Y-2.7488
X2.1111Y-2.5961
X2.1111Y-3.4561
X2.1281Y-2.7063
X2.1561Y-3.5011
X2.1661Y-4.9611
X2.1711Y-2.0211
X2.1711Y-2.1611
X2.1761Y-5.0011
X2.1775Y-2.6568
X2.1961Y-4.9611
X2.2111Y-3.8511
X2.22Y-2.6144
X2.2261Y-4.9611
X2.2765Y-3.6044
X2.319Y-3.6468
X2.3411Y-2.4961
X2.3611Y-4.8411
X2.3611Y-4.8711
X2.3611Y-4.9011
X2.3811Y-3.9911
X2.3861Y-2.4511
X2.4111Y-4.9611
X2.4161Y-2.2811
X2.4611Y-2.3261
X2.4811Y-1.8461
X2.5011Y-3.9411
X2.5911Y-2.4411
X2.6038Y-1.8941
X2.6261Y-4.0861
X2.6361Y-2.4511
X2.6462Y-1.8517
X2.6561Y-3.7461
X2.6711Y-4.0811
X2.7011Y-3.7011
X2.7211Y-5.0511
X2.7411Y-3.2311
X2.7411Y-3.2811
X2.7574Y-2.5296
X2.7998Y-2.572
X2.8111Y-1.7811
X2.8111Y-4.2211
X2.8493Y-2.6215
X2.8561Y-3.6211
X2.8847Y-2.6568
X2.8861Y-3.5911
X2.9075Y-1.9433
X2.9129Y-3.4771
X2.9362Y-2.4103
X2.9411Y-3.4511
X2.9412Y-2.77
X2.9503Y-1.986
X2.9554Y-2.6144
X2.9554Y-3.5478
X2.9837Y-2.7275
X2.9927Y-2.1699
X3.0011Y-3.6511
X3.0261Y-3.3461
X3.0511Y-4.7811
X3.0711Y-2.2811
X3.0761Y-3.3161
X3.0811Y-4.4111
X3.1011Y-4.4611
X3.1311Y-2.2811
X3.1811Y-1.7911
X3.2011Y-4.5211
X3.2011Y-4.8011
X3.2211Y-1.5011
X3.2211Y-1.5611
X3.2711Y-1.7711
X3.2711Y-1.8211
X3.5311Y-4.8011
X3.5411Y-4.5211
X3.5511Y-2.0011
X3.5511Y-2.2811
X3.5511Y-2.5611
X3.5511Y-2.8411
X3.5511Y-3.1211
X3.5511Y-3.4011
X3.5511Y-3.6811
X3.5511Y-3.9611
X3.5511Y-4.2411
X3.6711Y-4.8011
X3.6811Y-4.5211
X3.6911Y-2.0011
X3.6911Y-2.2811
X3.6911Y-2.5611
X3.6911Y-2.8411
X3.6911Y-3.1211
X3.6911Y-3.4011
X3.6911Y-3.6811
X3.6911Y-3.9611
X3.6911Y-4.2411
X3.7511Y-2.0011
X3.7511Y-2.2811
X3.7511Y-2.5611
X3.7511Y-2.8411
X3.7511Y-3.1211
X3.7511Y-3.4011
X3.7511Y-3.6811
X3.7511Y-3.9611
X3.7511Y-4.2411
X3.7511Y-4.5211
X3.7511Y-4.8011
X3.8911Y-2.0011
X3.8911Y-2.2811
X3.8911Y-2.5611
X3.8911Y-2.8411
X3.8911Y-3.1211
X3.8911Y-3.4011
X3.8911Y-3.6811
X3.8911Y-3.9611
X3.8911Y-4.2411
X3.8911Y-4.5211
X3.8911Y-4.8011
T3
X1.2511Y-4.5711
X1.2511Y-4.8511
X1.2511Y-4.9111
X1.2511Y-4.9711
X1.2511Y-5.0311
X1.3111Y-4.5711
X1.3111Y-4.8511
X1.3111Y-4.9111
X1.3111Y-4.9711
X1.3111Y-5.0311
X1.3511Y-4.8011
X1.3711Y-4.5711
X1.4311Y-4.5711
X1.5711Y-5.0561
X1.6911Y-4.8411
X1.6911Y-4.9011
X1.6911Y-4.9611
X1.6911Y-5.0211
X1.7511Y-4.8411
X1.7511Y-4.9011
X1.7511Y-4.9611
X1.7511Y-5.0211
X1.8211Y-4.2811
X1.8211Y-4.3411
X1.8211Y-4.4011
X1.9011Y-4.2811
X2.0411Y-4.5711
X2.0411Y-4.8511
X2.0411Y-4.9111
X2.0411Y-4.9711
X2.0411Y-5.0311
X2.1011Y-1.4911
X2.1011Y-4.3411
X2.1011Y-4.4011
X2.1011Y-4.4611
X2.1011Y-4.5711
X2.1011Y-4.8511
X2.1011Y-4.9111
X2.1011Y-4.9711
X2.1011Y-5.0311
X2.1411Y-4.8011
X2.1611Y-4.2811
X2.1611Y-4.3411
X2.1611Y-4.4011
X2.1611Y-4.4611
X2.1611Y-4.5711
X2.2011Y-4.0611
X2.2211Y-4.5711
X2.2611Y-4.0611
X2.3211Y-4.0611
X2.3411Y-4.2811
X2.3611Y-5.0561
X2.4511Y-4.0611
X2.4811Y-4.8411
X2.4811Y-4.9011
X2.4811Y-4.9611
X2.4811Y-5.0211
X2.5411Y-4.2811
X2.5411Y-4.3411
X2.5411Y-4.4011
X2.5411Y-4.4611
X2.5411Y-4.8411
X2.5411Y-4.9011
X2.5411Y-4.9611
X2.5411Y-5.0211
X2.6011Y-4.2811
X2.6011Y-4.3411
X2.6011Y-4.4011
X2.6011Y-4.4611
X2.9811Y-4.4011
X2.9811Y-4.4911
X2.9811Y-4.5811
X2.9811Y-4.6711
X2.9811Y-4.7611
X2.9811Y-4.8511
X2.9811Y-4.9411
X3.1011Y-4.0911
X3.1011Y-4.1511
X3.1011Y-4.2111
X3.2011Y-1.4111
X4.3811Y-1.3711
T4
X1.6511Y-1.7123
X1.7011Y-1.6123
X1.7511Y-1.7123
X1.8011Y-1.6123
X1.8511Y-1.7123
X1.9011Y-1.6123
X1.9511Y-1.7123
X2.0011Y-1.6123
X2.2011Y-1.7123
X2.2511Y-1.6123
X2.3011Y-1.7123
X2.3511Y-1.6123
X2.4011Y-1.7123
X2.4511Y-1.6123
X2.5011Y-1.7123
X2.5511Y-1.6123
X3.5969Y-1.8406
X3.6465Y-1.7406
X3.6969Y-1.8406
X3.7465Y-1.7406
X3.7969Y-1.8406
X3.8465Y-1.7406
X3.8969Y-1.8406
X3.9465Y-1.7406
X4.2154Y-1.4398
X4.2154Y-1.5398
X4.2154Y-1.6398
X4.2154Y-1.7398
X4.2154Y-1.9898
X4.2154Y-2.0898
X4.2154Y-2.1898
X4.2154Y-2.2898
X4.2154Y-2.6996
X4.2154Y-2.7996
X4.2154Y-2.8996
X4.2154Y-2.9996
X4.2154Y-3.2496
X4.2154Y-3.3496
X4.2154Y-3.4496
X4.2154Y-3.5496
X4.2154Y-3.9594
X4.2154Y-4.0594
X4.2154Y-4.1594
X4.2154Y-4.2594
X4.2154Y-4.5094
X4.2154Y-4.6094
X4.2154Y-4.7094
X4.2154Y-4.8094
X4.3154Y-1.4898
X4.3154Y-1.5898
X4.3154Y-1.6898
X4.3154Y-1.7898
X4.3154Y-2.0398
X4.3154Y-2.1398
X4.3154Y-2.2398
X4.3154Y-2.3398
X4.3154Y-2.7496
X4.3154Y-2.8496
X4.3154Y-2.9496
X4.3154Y-3.0496
X4.3154Y-3.2996
X4.3154Y-3.3996
X4.3154Y-3.4996
X4.3154Y-3.5996
X4.3154Y-4.0094
X4.3154Y-4.1094
X4.3154Y-4.2094
X4.3154Y-4.3094
X4.3154Y-4.5594
X4.3154Y-4.6594
X4.3154Y-4.7594
X4.3154Y-4.8594
X4.4744Y-1.4398
X4.4744Y-1.5398
X4.4744Y-1.6398
X4.4744Y-1.7398
X4.4744Y-1.9898
X4.4744Y-2.0898
X4.4744Y-2.1898
X4.4744Y-2.2898
X4.4744Y-2.6996
X4.4744Y-2.7996
X4.4744Y-2.8996
X4.4744Y-2.9996
X4.4744Y-3.2496
X4.4744Y-3.3496
X4.4744Y-3.4496
X4.4744Y-3.5496
X4.4744Y-3.9594
X4.4744Y-4.0594
X4.4744Y-4.1594
X4.4744Y-4.2594
X4.4744Y-4.5094
X4.4744Y-4.6094
X4.4744Y-4.7094
X4.4744Y-4.8094
X4.5744Y-1.4898
X4.5744Y-1.5898
X4.5744Y-1.6898
X4.5744Y-1.7898
X4.5744Y-2.0398
X4.5744Y-2.1398
X4.5744Y-2.2398
X4.5744Y-2.3398
X4.5744Y-2.7496
X4.5744Y-2.8496
X4.5744Y-2.9496
X4.5744Y-3.0496
X4.5744Y-3.2996
X4.5744Y-3.3996
X4.5744Y-3.4996
X4.5744Y-3.5996
X4.5744Y-4.0094
X4.5744Y-4.1094
X4.5744Y-4.2094
X4.5744Y-4.3094
X4.5744Y-4.5594
X4.5744Y-4.6594
X4.5744Y-4.7594
X4.5744Y-4.8594
T5
X1.4911Y-2.8411
X1.4911Y-2.9411
X1.4911Y-3.0411
X1.4911Y-3.1411
X1.4911Y-3.2411
X1.4911Y-3.3411
X1.4911Y-3.4411
X1.4911Y-3.5411
X1.4911Y-3.6411
X1.4911Y-3.7411
X1.4911Y-3.8411
X1.4911Y-3.9411
X1.4911Y-4.0411
X1.5911Y-2.8411
X1.5911Y-2.9411
X1.5911Y-3.0411
X1.5911Y-3.1411
X1.5911Y-3.2411
X1.5911Y-3.3411
X1.5911Y-3.4411
X1.5911Y-3.5411
X1.5911Y-3.6411
X1.5911Y-3.7411
X1.5911Y-3.8411
X1.5911Y-3.9411
X1.5911Y-4.0411
X3.198Y-2.298
X3.198Y-2.398
X3.198Y-2.498
X3.198Y-2.598
X3.198Y-2.698
X3.198Y-2.798
X3.198Y-2.898
X3.198Y-2.998
X3.198Y-3.098
X3.198Y-3.198
X3.198Y-3.298
X3.198Y-3.398
X3.198Y-3.498
X3.198Y-3.598
X3.198Y-3.698
X3.198Y-3.798
X3.198Y-3.898
X3.198Y-3.998
X3.198Y-4.098
X3.198Y-4.198
X3.298Y-2.298
X3.298Y-2.398
X3.298Y-2.498
X3.298Y-2.598
X3.298Y-2.698
X3.298Y-2.798
X3.298Y-2.898
X3.298Y-2.998
X3.298Y-3.098
X3.298Y-3.198
X3.298Y-3.298
X3.298Y-3.398
X3.298Y-3.498
X3.298Y-3.598
X3.298Y-3.698
X3.298Y-3.798
X3.298Y-3.898
X3.298Y-3.998
X3.298Y-4.098
X3.298Y-4.198
T6
X3.5108Y-1.2972
X3.6108Y-1.2972
X3.9325Y-1.2972
X4.0325Y-1.2972
T7
X1.3753Y-1.3386
X1.3753Y-1.4764
X1.3753Y-1.7224
X1.3753Y-1.8602
X1.3753Y-2.3545
X1.3753Y-2.4923
T8
X3.4667Y-1.6102
X4.0766Y-1.6102
M30
